{
	"asset":{
		"generator":"Khronos glTF Blender I/O v4.0.44",
		"version":"2.0"
	},
	"scene":0,
	"scenes":[
		{
			"name":"Scene",
			"nodes":[
				0
			]
		}
	],
	"nodes":[
		{
			"camera":0,
			"name":"CineCameraActor",
			"rotation":[
				-0.2375851422548294,
				-0.6578608155250549,
				-0.6432306170463562,
				0.31149134039878845
			],
			"scale":[
				0.009999999776482582,
				0.009999999776482582,
				0.009999998845160007
			],
			"translation":[
				-0.14440123736858368,
				1.3941529989242554,
				0.037464313209056854
			]
		}
	],
	"cameras":[
		{
			"name":"CineCameraActor.001",
			"perspective":{
				"aspectRatio":1.7777777777777777,
				"yfov":0.24564970963129798,
				"zfar":1000,
				"znear":0.10000000149011612
			},
			"type":"perspective"
		}
	],
	"animations":[
		{
			"channels":[
				{
					"sampler":0,
					"target":{
						"node":0,
						"path":"translation"
					}
				},
				{
					"sampler":1,
					"target":{
						"node":0,
						"path":"rotation"
					}
				},
				{
					"sampler":2,
					"target":{
						"node":0,
						"path":"scale"
					}
				}
			],
			"name":"CineCameraActor|Unreal Take|Base Layer.002",
			"samplers":[
				{
					"input":0,
					"interpolation":"LINEAR",
					"output":1
				},
				{
					"input":0,
					"interpolation":"LINEAR",
					"output":2
				},
				{
					"input":3,
					"interpolation":"STEP",
					"output":4
				}
			]
		}
	],
	"accessors":[
		{
			"bufferView":0,
			"componentType":5126,
			"count":302,
			"max":[
				10.066666666666666
			],
			"min":[
				0.03333333333333333
			],
			"type":"SCALAR"
		},
		{
			"bufferView":1,
			"componentType":5126,
			"count":302,
			"type":"VEC3"
		},
		{
			"bufferView":2,
			"componentType":5126,
			"count":302,
			"type":"VEC4"
		},
		{
			"bufferView":3,
			"componentType":5126,
			"count":2,
			"max":[
				10.066666666666666
			],
			"min":[
				0.03333333333333333
			],
			"type":"SCALAR"
		},
		{
			"bufferView":4,
			"componentType":5126,
			"count":2,
			"type":"VEC3"
		}
	],
	"bufferViews":[
		{
			"buffer":0,
			"byteLength":1208,
			"byteOffset":0
		},
		{
			"buffer":0,
			"byteLength":3624,
			"byteOffset":1208
		},
		{
			"buffer":0,
			"byteLength":4832,
			"byteOffset":4832
		},
		{
			"buffer":0,
			"byteLength":8,
			"byteOffset":9664
		},
		{
			"buffer":0,
			"byteLength":24,
			"byteOffset":9672
		}
	],
	"buffers":[
		{
			"byteLength":9696,
			"uri":"shoeCam_blenderExport.v001.bin"
		}
	]
}
