{
	"asset":{
		"generator":"Khronos glTF Blender I/O v4.0.44",
		"version":"2.0"
	},
	"scene":0,
	"scenes":[
		{
			"name":"Scene",
			"nodes":[
				0
			]
		}
	],
	"nodes":[
		{
			"mesh":0,
			"name":"Mesh_B0CPPFK7NM_K_M"
		}
	],
	"meshes":[
		{
			"name":"mesh_1476",
			"primitives":[
				{
					"attributes":{
						"POSITION":0,
						"NORMAL":1,
						"TEXCOORD_0":2
					},
					"indices":3
				}
			]
		}
	],
	"accessors":[
		{
			"bufferView":0,
			"componentType":5126,
			"count":100862,
			"max":[
				0.05399036779999733,
				0.1485016644001007,
				0.14507834613323212
			],
			"min":[
				-0.05399036779999733,
				0,
				-0.14507834613323212
			],
			"type":"VEC3"
		},
		{
			"bufferView":1,
			"componentType":5126,
			"count":100862,
			"type":"VEC3"
		},
		{
			"bufferView":2,
			"componentType":5126,
			"count":100862,
			"type":"VEC2"
		},
		{
			"bufferView":3,
			"componentType":5125,
			"count":593076,
			"type":"SCALAR"
		}
	],
	"bufferViews":[
		{
			"buffer":0,
			"byteLength":1210344,
			"byteOffset":0,
			"target":34962
		},
		{
			"buffer":0,
			"byteLength":1210344,
			"byteOffset":1210344,
			"target":34962
		},
		{
			"buffer":0,
			"byteLength":806896,
			"byteOffset":2420688,
			"target":34962
		},
		{
			"buffer":0,
			"byteLength":2372304,
			"byteOffset":3227584,
			"target":34963
		}
	],
	"buffers":[
		{
			"byteLength":5599888,
			"uri":"Shoe.bin"
		}
	]
}
