{
	"asset":{
		"generator":"Khronos glTF Blender I/O v4.0.44",
		"version":"2.0"
	},
	"scene":0,
	"scenes":[
		{
			"name":"Scene",
			"nodes":[
				0
			]
		}
	],
	"nodes":[
		{
			"mesh":0,
			"name":"model_testGeo_teapotNoUDIM_combine_v001",
			"rotation":[
				0.7071068286895752,
				0,
				0,
				0.7071068286895752
			]
		}
	],
	"meshes":[
		{
			"name":"model_testGeo_teapotNoUDIM_combine_v001",
			"primitives":[
				{
					"attributes":{
						"POSITION":0,
						"NORMAL":1,
						"TEXCOORD_0":2
					},
					"indices":3
				}
			]
		}
	],
	"accessors":[
		{
			"bufferView":0,
			"componentType":5126,
			"count":2503,
			"max":[
				8.222864151000977,
				10.121129989624023,
				5.199999941396527e-05
			],
			"min":[
				-8.253984451293945,
				-12.290693283081055,
				-14.160895347595215
			],
			"type":"VEC3"
		},
		{
			"bufferView":1,
			"componentType":5126,
			"count":2503,
			"type":"VEC3"
		},
		{
			"bufferView":2,
			"componentType":5126,
			"count":2503,
			"type":"VEC2"
		},
		{
			"bufferView":3,
			"componentType":5123,
			"count":9021,
			"type":"SCALAR"
		}
	],
	"bufferViews":[
		{
			"buffer":0,
			"byteLength":30036,
			"byteOffset":0,
			"target":34962
		},
		{
			"buffer":0,
			"byteLength":30036,
			"byteOffset":30036,
			"target":34962
		},
		{
			"buffer":0,
			"byteLength":20024,
			"byteOffset":60072,
			"target":34962
		},
		{
			"buffer":0,
			"byteLength":18042,
			"byteOffset":80096,
			"target":34963
		}
	],
	"buffers":[
		{
			"byteLength":98140,
			"uri":"model_testGeo_teapotNoUDIM_separate_v001.bin"
		}
	]
}
